<?xml version="1.0" encoding="UTF-8" standalone="no"?>
<!-- Created with Inkscape (http://www.inkscape.org/) -->

<svg
   width="342.8909"
   height="337.17984"
   viewBox="0 0 342.8909 337.17984"
   version="1.1"
   id="svg1"
   xmlns:xlink="http://www.w3.org/1999/xlink"
   xmlns="http://www.w3.org/2000/svg"
   xmlns:svg="http://www.w3.org/2000/svg">
  <defs
     id="defs1">
    <linearGradient
       id="linearGradient34">
      <stop
         style="stop-color:#000097;stop-opacity:1;"
         offset="0"
         id="stop34" />
      <stop
         style="stop-color:#bdbcff;stop-opacity:1;"
         offset="1"
         id="stop35" />
    </linearGradient>
    <linearGradient
       id="linearGradient32">
      <stop
         style="stop-color:#000098;stop-opacity:1;"
         offset="0.01831502"
         id="stop32" />
      <stop
         style="stop-color:#a4a5ff;stop-opacity:1;"
         offset="1"
         id="stop33" />
    </linearGradient>
    <linearGradient
       xlink:href="#linearGradient32"
       id="linearGradient33"
       x1="139.08679"
       y1="368.78366"
       x2="393.5596"
       y2="147.57382"
       gradientUnits="userSpaceOnUse" />
    <linearGradient
       xlink:href="#linearGradient34"
       id="linearGradient35"
       x1="354.79132"
       y1="199.79179"
       x2="420.20599"
       y2="116.0648"
       gradientUnits="userSpaceOnUse" />
    <clipPath
       clipPathUnits="userSpaceOnUse"
       id="clipPath1">
      <circle
         style="display:none;fill:#ffffff;stroke-width:23.1584;-inkscape-stroke:none"
         id="circle1"
         cx="392.24191"
         cy="154.54027"
         r="82.26255" />
      <path
         id="lpe_path-effect1"
         style="fill:#ffffff;stroke-width:23.1584;-inkscape-stroke:none"
         class="powerclip"
         d="M 92.733284,84.588844 H 439.91312 V 431.76868 H 92.733284 Z M 474.50446,154.54027 a 82.26255,82.26255 0 0 0 -82.26255,-82.262552 82.26255,82.26255 0 0 0 -82.26255,82.262552 82.26255,82.26255 0 0 0 82.26255,82.26255 82.26255,82.26255 0 0 0 82.26255,-82.26255 z" />
    </clipPath>
  </defs>
  <g
     id="layer1"
     transform="translate(-97.733284,-89.588844)">
    <path
       style="fill:url(#linearGradient33);stroke-width:13.9861;-inkscape-stroke:none"
       id="rect20"
       width="337.17984"
       height="337.17984"
       x="97.733284"
       y="89.588844"
       clip-path="url(#clipPath1)"
       d="M 97.733284,89.588844 H 434.91312 V 426.76868 H 97.733284 Z" />
    <path
       d="m 145.27081,311.92804 v 77.64297 h -13.54844 v -77.64297 z m 14.38219,99.42469 v -80.04 h 13.23578 v 9.64024 h 0.88586 q 0.99008,-2.03227 2.91813,-4.4293 1.92804,-2.44914 5.26304,-4.16875 3.335,-1.77172 8.49383,-1.77172 6.72211,0 12.14149,3.43922 5.47148,3.43922 8.65015,10.16133 3.23078,6.67 3.23078,16.36234 0,9.58813 -3.17867,16.31024 -3.12656,6.72211 -8.54594,10.26554 -5.41937,3.49133 -12.34992,3.49133 -5.0025,0 -8.3375,-1.6675 -3.28289,-1.71961 -5.26305,-4.11664 -1.98015,-2.39703 -3.02234,-4.48141 h -0.5732 v 31.00508 z m 27.09688,-31.89093 q 6.77421,0 10.26554,-5.36727 3.54344,-5.41938 3.54344,-13.60055 0,-8.12906 -3.49133,-13.44422 -3.43922,-5.31515 -10.31765,-5.31515 -6.72211,0 -10.26555,5.15883 -3.54344,5.10671 -3.54344,13.60054 0,8.49383 3.59555,13.75688 3.59554,5.21094 10.21344,5.21094 z m 39.4989,10.10921 v -58.25828 h 12.71469 l 0.41687,11.0993 q 2.29281,-6.20102 6.77422,-9.11914 4.53352,-2.91813 9.74445,-2.91813 11.15141,0 14.9554,12.66258 2.34492,-6.30523 7.39953,-9.4839 5.05461,-3.17868 11.20351,-3.17868 7.86852,0 13.18367,5.10672 5.31516,5.10672 5.31516,14.79907 v 39.29046 h -13.54844 v -37.20609 q 0,-5.41937 -2.97023,-7.92062 -2.97024,-2.50125 -7.13899,-2.50125 -4.95039,0 -7.76429,3.07445 -2.81391,3.07445 -2.81391,7.97273 v 36.58078 h -13.23578 v -37.8314 q 0,-4.4293 -2.7618,-7.08688 -2.76179,-2.70968 -7.08687,-2.70968 -4.48141,0 -7.66008,3.07445 -3.17867,3.02234 -3.17867,8.85859 v 35.69492 z"
       id="text20"
       style="font-weight:600;font-size:106.72px;line-height:0;font-family:Inter;-inkscape-font-specification:'Inter Semi-Bold';fill:#ffffff;stroke-width:27.9863"
       aria-label="lpm" />
    <circle
       style="fill:url(#linearGradient35);stroke-width:14.9558;-inkscape-stroke:none"
       id="circle20"
       cx="387.49866"
       cy="157.9283"
       r="53.12553" />
  </g>
</svg>
