<?xml version="1.0" encoding="UTF-8" standalone="no"?>
<!-- Created with Inkscape (http://www.inkscape.org/) -->

<svg
   width="342.8909"
   height="337.17984"
   viewBox="0 0 342.8909 337.17984"
   version="1.1"
   id="svg1"
   xmlns:xlink="http://www.w3.org/1999/xlink"
   xmlns="http://www.w3.org/2000/svg"
   xmlns:svg="http://www.w3.org/2000/svg">
  <defs
     id="defs1">
    <linearGradient
       id="linearGradient34">
      <stop
         style="stop-color:#000097;stop-opacity:1;"
         offset="0"
         id="stop34" />
      <stop
         style="stop-color:#bdbcff;stop-opacity:1;"
         offset="1"
         id="stop35" />
    </linearGradient>
    <linearGradient
       id="linearGradient32">
      <stop
         style="stop-color:#000098;stop-opacity:1;"
         offset="0.01831502"
         id="stop32" />
      <stop
         style="stop-color:#a4a5ff;stop-opacity:1;"
         offset="1"
         id="stop33" />
    </linearGradient>
    <linearGradient
       xlink:href="#linearGradient32"
       id="linearGradient33"
       x1="139.08679"
       y1="368.78366"
       x2="393.5596"
       y2="147.57382"
       gradientUnits="userSpaceOnUse" />
    <linearGradient
       xlink:href="#linearGradient34"
       id="linearGradient35"
       x1="354.79132"
       y1="199.79179"
       x2="420.20599"
       y2="116.0648"
       gradientUnits="userSpaceOnUse" />
    <clipPath
       clipPathUnits="userSpaceOnUse"
       id="clipPath1">
      <circle
         style="display:none;fill:#ffffff;stroke-width:23.1584;-inkscape-stroke:none"
         id="circle1"
         cx="392.24191"
         cy="154.54027"
         r="82.26255"
         d="m 474.50446,154.54027 a 82.26255,82.26255 0 0 1 -82.26255,82.26255 82.26255,82.26255 0 0 1 -82.26255,-82.26255 82.26255,82.26255 0 0 1 82.26255,-82.262552 82.26255,82.26255 0 0 1 82.26255,82.262552 z" />
      <path
         id="lpe_path-effect1"
         style="fill:#ffffff;stroke-width:23.1584;-inkscape-stroke:none"
         class="powerclip"
         d="M 92.733284,84.588844 H 439.91312 V 431.76868 H 92.733284 Z M 474.50446,154.54027 a 82.26255,82.26255 0 0 0 -82.26255,-82.262552 82.26255,82.26255 0 0 0 -82.26255,82.262552 82.26255,82.26255 0 0 0 82.26255,82.26255 82.26255,82.26255 0 0 0 82.26255,-82.26255 z" />
    </clipPath>
  </defs>
  <g
     id="layer1"
     transform="translate(-97.733284,-89.588844)">
    <path
       style="fill:url(#linearGradient33);stroke-width:13.9861;-inkscape-stroke:none"
       id="rect20"
       width="337.17984"
       height="337.17984"
       x="97.733284"
       y="89.588844"
       clip-path="url(#clipPath1)"
       d="M 97.733284,89.588844 H 434.91312 V 426.76868 H 97.733284 Z" />
    <circle
       style="fill:url(#linearGradient35);stroke-width:14.9558;-inkscape-stroke:none"
       id="circle20"
       cx="387.49866"
       cy="157.9283"
       r="53.12553" />
  </g>
</svg>
